<mxfile host="app.diagrams.net" agent="Mozilla/5.0 (Windows NT 10.0; Win64; x64) AppleWebKit/537.36 (KHTML, like Gecko) Chrome/140.0.0.0 Safari/537.36" version="28.2.5">
  <diagram name="Page-1" id="2G-UBzK9TNp5vLxw_0e4">
    <mxGraphModel dx="3227" dy="2352" grid="1" gridSize="10" guides="1" tooltips="1" connect="1" arrows="1" fold="1" page="1" pageScale="1" pageWidth="850" pageHeight="1100" math="0" shadow="0">
      <root>
        <mxCell id="0" />
        <mxCell id="1" parent="0" />
        <mxCell id="qywuNPzPCbRa4dSA3wJB-5" value="Vehicle" style="swimlane;fontStyle=1;align=center;verticalAlign=top;childLayout=stackLayout;horizontal=1;startSize=26;horizontalStack=0;resizeParent=1;resizeParentMax=0;resizeLast=0;collapsible=1;marginBottom=0;whiteSpace=wrap;html=1;" parent="1" vertex="1">
          <mxGeometry x="100" width="200" height="400" as="geometry" />
        </mxCell>
        <mxCell id="qywuNPzPCbRa4dSA3wJB-6" value="- vehicleID: int&lt;div&gt;- make: String&lt;/div&gt;&lt;div&gt;- model: String&lt;/div&gt;&lt;div&gt;- year: short&lt;/div&gt;&lt;div&gt;- color: String&lt;/div&gt;&lt;div&gt;- bodyStyle: String&lt;/div&gt;&lt;div&gt;- licensePlate: String&lt;/div&gt;&lt;div&gt;- employee: DeliveryPerson&lt;/div&gt;" style="text;strokeColor=none;fillColor=none;align=left;verticalAlign=top;spacingLeft=4;spacingRight=4;overflow=hidden;rotatable=0;points=[[0,0.5],[1,0.5]];portConstraint=eastwest;whiteSpace=wrap;html=1;" parent="qywuNPzPCbRa4dSA3wJB-5" vertex="1">
          <mxGeometry y="26" width="200" height="134" as="geometry" />
        </mxCell>
        <mxCell id="qywuNPzPCbRa4dSA3wJB-7" value="" style="line;strokeWidth=1;fillColor=none;align=left;verticalAlign=middle;spacingTop=-1;spacingLeft=3;spacingRight=3;rotatable=0;labelPosition=right;points=[];portConstraint=eastwest;strokeColor=inherit;" parent="qywuNPzPCbRa4dSA3wJB-5" vertex="1">
          <mxGeometry y="160" width="200" height="8" as="geometry" />
        </mxCell>
        <mxCell id="qywuNPzPCbRa4dSA3wJB-8" value="+ Vehicle(DeliveryPerson)&lt;div&gt;+ getMake(): String&lt;/div&gt;&lt;div&gt;+ getModel(): String&lt;/div&gt;&lt;div&gt;+ getYear(): short&lt;/div&gt;&lt;div&gt;+ getColor(): String&lt;/div&gt;&lt;div&gt;+ getBodyStyle(): String&lt;/div&gt;&lt;div&gt;+ getLicensePlate(): String&lt;/div&gt;&lt;div&gt;+ getEmployee(): DeliveryPerson&lt;/div&gt;&lt;div&gt;+ setMake(String): Void&lt;/div&gt;&lt;div&gt;+ setModelString): Void&lt;/div&gt;&lt;div&gt;+ setYear(short): Void&lt;/div&gt;&lt;div&gt;+ setColor(String): Void&lt;/div&gt;&lt;div&gt;+ setBodyStyle(String): Void&lt;/div&gt;&lt;div&gt;+ setLicensePlate(String): Void&lt;/div&gt;&lt;div&gt;&lt;br&gt;&lt;/div&gt;" style="text;strokeColor=none;fillColor=none;align=left;verticalAlign=top;spacingLeft=4;spacingRight=4;overflow=hidden;rotatable=0;points=[[0,0.5],[1,0.5]];portConstraint=eastwest;whiteSpace=wrap;html=1;" parent="qywuNPzPCbRa4dSA3wJB-5" vertex="1">
          <mxGeometry y="168" width="200" height="232" as="geometry" />
        </mxCell>
        <mxCell id="qywuNPzPCbRa4dSA3wJB-9" value="Address" style="swimlane;fontStyle=1;align=center;verticalAlign=top;childLayout=stackLayout;horizontal=1;startSize=26;horizontalStack=0;resizeParent=1;resizeParentMax=0;resizeLast=0;collapsible=1;marginBottom=0;whiteSpace=wrap;html=1;" parent="1" vertex="1">
          <mxGeometry x="-595" y="330" width="200" height="400" as="geometry" />
        </mxCell>
        <mxCell id="qywuNPzPCbRa4dSA3wJB-10" value="- addressID: int&lt;div&gt;&lt;span style=&quot;background-color: transparent; color: light-dark(rgb(0, 0, 0), rgb(255, 255, 255));&quot;&gt;- addressLine1: String&lt;/span&gt;&lt;/div&gt;&lt;div&gt;&lt;span style=&quot;background-color: transparent; color: light-dark(rgb(0, 0, 0), rgb(255, 255, 255));&quot;&gt;- addressLine2: String&lt;/span&gt;&lt;/div&gt;&lt;div&gt;&lt;span style=&quot;background-color: transparent; color: light-dark(rgb(0, 0, 0), rgb(255, 255, 255));&quot;&gt;- city: String&lt;/span&gt;&lt;/div&gt;&lt;div&gt;&lt;span style=&quot;background-color: transparent; color: light-dark(rgb(0, 0, 0), rgb(255, 255, 255));&quot;&gt;- state: String&lt;/span&gt;&lt;/div&gt;&lt;div&gt;&lt;span style=&quot;background-color: transparent; color: light-dark(rgb(0, 0, 0), rgb(255, 255, 255));&quot;&gt;- zipCode: String&lt;/span&gt;&lt;/div&gt;&lt;div&gt;&lt;span style=&quot;background-color: transparent; color: light-dark(rgb(0, 0, 0), rgb(255, 255, 255));&quot;&gt;- customer: Customer&lt;/span&gt;&lt;/div&gt;" style="text;strokeColor=none;fillColor=none;align=left;verticalAlign=top;spacingLeft=4;spacingRight=4;overflow=hidden;rotatable=0;points=[[0,0.5],[1,0.5]];portConstraint=eastwest;whiteSpace=wrap;html=1;" parent="qywuNPzPCbRa4dSA3wJB-9" vertex="1">
          <mxGeometry y="26" width="200" height="134" as="geometry" />
        </mxCell>
        <mxCell id="qywuNPzPCbRa4dSA3wJB-11" value="" style="line;strokeWidth=1;fillColor=none;align=left;verticalAlign=middle;spacingTop=-1;spacingLeft=3;spacingRight=3;rotatable=0;labelPosition=right;points=[];portConstraint=eastwest;strokeColor=inherit;" parent="qywuNPzPCbRa4dSA3wJB-9" vertex="1">
          <mxGeometry y="160" width="200" height="8" as="geometry" />
        </mxCell>
        <mxCell id="qywuNPzPCbRa4dSA3wJB-12" value="+ Address():&lt;div&gt;+ getLine1(): String&lt;/div&gt;&lt;div&gt;+ getLine2(): String&lt;/div&gt;&lt;div&gt;+ getCity(): String&lt;/div&gt;&lt;div&gt;+ getState(): String&lt;/div&gt;&lt;div&gt;+ getZipCode(): String&lt;/div&gt;&lt;div&gt;+ getCustomer(): Customer&lt;/div&gt;&lt;div&gt;&lt;br&gt;&lt;/div&gt;&lt;div&gt;+ setLine1(String): Void&lt;/div&gt;&lt;div&gt;+ setLine2String): Void&lt;/div&gt;&lt;div&gt;+ setCity(String): Void&lt;/div&gt;&lt;div&gt;+ setState(String): Void&lt;/div&gt;&lt;div&gt;+ setZipCode(String): Void&lt;/div&gt;&lt;div&gt;+ setCustomer(String): Void&lt;/div&gt;&lt;div&gt;&lt;br&gt;&lt;/div&gt;" style="text;strokeColor=none;fillColor=none;align=left;verticalAlign=top;spacingLeft=4;spacingRight=4;overflow=hidden;rotatable=0;points=[[0,0.5],[1,0.5]];portConstraint=eastwest;whiteSpace=wrap;html=1;" parent="qywuNPzPCbRa4dSA3wJB-9" vertex="1">
          <mxGeometry y="168" width="200" height="232" as="geometry" />
        </mxCell>
        <mxCell id="qywuNPzPCbRa4dSA3wJB-17" value="Order" style="swimlane;fontStyle=1;align=center;verticalAlign=top;childLayout=stackLayout;horizontal=1;startSize=26;horizontalStack=0;resizeParent=1;resizeParentMax=0;resizeLast=0;collapsible=1;marginBottom=0;whiteSpace=wrap;html=1;" parent="1" vertex="1">
          <mxGeometry x="-310" y="320" width="250" height="380" as="geometry" />
        </mxCell>
        <mxCell id="qywuNPzPCbRa4dSA3wJB-18" value="&lt;div&gt;- orderID: int&lt;/div&gt;&lt;div&gt;- contents: ArrayList&amp;lt;Dish&amp;gt;&lt;/div&gt;&lt;div&gt;- time: String&lt;/div&gt;&lt;div&gt;- date: String&lt;/div&gt;&lt;div&gt;- customer: Customer&lt;/div&gt;&lt;div&gt;- address: Address&lt;/div&gt;&lt;div&gt;- deliveryPerson: DeliveryPerson&lt;/div&gt;" style="text;strokeColor=none;fillColor=none;align=left;verticalAlign=top;spacingLeft=4;spacingRight=4;overflow=hidden;rotatable=0;points=[[0,0.5],[1,0.5]];portConstraint=eastwest;whiteSpace=wrap;html=1;" parent="qywuNPzPCbRa4dSA3wJB-17" vertex="1">
          <mxGeometry y="26" width="250" height="114" as="geometry" />
        </mxCell>
        <mxCell id="qywuNPzPCbRa4dSA3wJB-19" value="" style="line;strokeWidth=1;fillColor=none;align=left;verticalAlign=middle;spacingTop=-1;spacingLeft=3;spacingRight=3;rotatable=0;labelPosition=right;points=[];portConstraint=eastwest;strokeColor=inherit;" parent="qywuNPzPCbRa4dSA3wJB-17" vertex="1">
          <mxGeometry y="140" width="250" height="8" as="geometry" />
        </mxCell>
        <mxCell id="qywuNPzPCbRa4dSA3wJB-20" value="+ Order(int)&lt;div&gt;+ Order(int, Dish)&lt;br&gt;&lt;div&gt;&lt;div&gt;+ getOrderID(): int&lt;/div&gt;&lt;div&gt;+ getTime(): String&lt;/div&gt;&lt;/div&gt;&lt;div&gt;+ getDate(): String&lt;/div&gt;&lt;div&gt;+ getCustomer(): Customer&lt;/div&gt;&lt;div&gt;+ getAddress(): Address&lt;/div&gt;&lt;div&gt;+ getDeliveryPerson(): DeliveryPerson&lt;/div&gt;&lt;div&gt;&lt;div&gt;&lt;div&gt;+ setOrderID(int): void&lt;/div&gt;&lt;div&gt;+ setTime(String): void&lt;/div&gt;&lt;/div&gt;&lt;div&gt;+ setDate(String): void&lt;/div&gt;&lt;div&gt;+ setCustomer(Customer): void&lt;/div&gt;&lt;div&gt;+ setAddress(Address): void&lt;/div&gt;&lt;div&gt;+ setDeliveryPerson(Address): void&lt;/div&gt;&lt;/div&gt;&lt;/div&gt;" style="text;strokeColor=none;fillColor=none;align=left;verticalAlign=top;spacingLeft=4;spacingRight=4;overflow=hidden;rotatable=0;points=[[0,0.5],[1,0.5]];portConstraint=eastwest;whiteSpace=wrap;html=1;" parent="qywuNPzPCbRa4dSA3wJB-17" vertex="1">
          <mxGeometry y="148" width="250" height="232" as="geometry" />
        </mxCell>
        <mxCell id="fJLxZldaC8GXOIMq1Dwn-1" value="Person" style="swimlane;fontStyle=1;align=center;verticalAlign=top;childLayout=stackLayout;horizontal=1;startSize=26;horizontalStack=0;resizeParent=1;resizeParentMax=0;resizeLast=0;collapsible=1;marginBottom=0;whiteSpace=wrap;html=1;" vertex="1" parent="1">
          <mxGeometry x="-440" y="-300" width="250" height="330" as="geometry" />
        </mxCell>
        <mxCell id="fJLxZldaC8GXOIMq1Dwn-2" value="&lt;div&gt;- personID: int&lt;/div&gt;&lt;div&gt;- name: String&lt;/div&gt;&lt;div&gt;- phoneNumbers: ArrayList&amp;lt;String&amp;gt;&lt;/div&gt;&lt;div&gt;- emailAddresses: ArrayList&amp;lt;String&amp;gt;&lt;/div&gt;&lt;div&gt;- orderHistory: ArrayList&amp;lt;Order&amp;gt;&lt;/div&gt;" style="text;strokeColor=none;fillColor=none;align=left;verticalAlign=top;spacingLeft=4;spacingRight=4;overflow=hidden;rotatable=0;points=[[0,0.5],[1,0.5]];portConstraint=eastwest;whiteSpace=wrap;html=1;" vertex="1" parent="fJLxZldaC8GXOIMq1Dwn-1">
          <mxGeometry y="26" width="250" height="84" as="geometry" />
        </mxCell>
        <mxCell id="fJLxZldaC8GXOIMq1Dwn-3" value="" style="line;strokeWidth=1;fillColor=none;align=left;verticalAlign=middle;spacingTop=-1;spacingLeft=3;spacingRight=3;rotatable=0;labelPosition=right;points=[];portConstraint=eastwest;strokeColor=inherit;" vertex="1" parent="fJLxZldaC8GXOIMq1Dwn-1">
          <mxGeometry y="110" width="250" height="8" as="geometry" />
        </mxCell>
        <mxCell id="fJLxZldaC8GXOIMq1Dwn-4" value="+ Person(String, int)&lt;div&gt;&lt;div&gt;+ getID(): int&lt;/div&gt;&lt;div&gt;+ getName(): String&lt;/div&gt;&lt;/div&gt;&lt;div&gt;&lt;span style=&quot;background-color: transparent; color: light-dark(rgb(0, 0, 0), rgb(255, 255, 255));&quot;&gt;+ setCustomerID(int): void&lt;/span&gt;&lt;/div&gt;&lt;div&gt;+ setName(string): void&lt;/div&gt;&lt;div&gt;+ addPhone(String): void&lt;/div&gt;&lt;div&gt;+ addEmail(String): void&lt;/div&gt;&lt;div&gt;+ addOrder(Order): void&lt;/div&gt;&lt;div&gt;+ removePhone(String): void&lt;/div&gt;&lt;div&gt;+ removeEmail(String): void&lt;/div&gt;&lt;div&gt;+ removeOrder(Order): void&lt;/div&gt;&lt;div&gt;&lt;br&gt;&lt;/div&gt;" style="text;strokeColor=none;fillColor=none;align=left;verticalAlign=top;spacingLeft=4;spacingRight=4;overflow=hidden;rotatable=0;points=[[0,0.5],[1,0.5]];portConstraint=eastwest;whiteSpace=wrap;html=1;" vertex="1" parent="fJLxZldaC8GXOIMq1Dwn-1">
          <mxGeometry y="118" width="250" height="212" as="geometry" />
        </mxCell>
        <mxCell id="fJLxZldaC8GXOIMq1Dwn-12" value="DeliveryPerson" style="swimlane;fontStyle=1;align=center;verticalAlign=top;childLayout=stackLayout;horizontal=1;startSize=26;horizontalStack=0;resizeParent=1;resizeParentMax=0;resizeLast=0;collapsible=1;marginBottom=0;whiteSpace=wrap;html=1;" vertex="1" parent="1">
          <mxGeometry x="-240" y="120" width="240" height="180" as="geometry" />
        </mxCell>
        <mxCell id="fJLxZldaC8GXOIMq1Dwn-13" value="- deliveryVehicle: Vehicle" style="text;strokeColor=none;fillColor=none;align=left;verticalAlign=top;spacingLeft=4;spacingRight=4;overflow=hidden;rotatable=0;points=[[0,0.5],[1,0.5]];portConstraint=eastwest;whiteSpace=wrap;html=1;" vertex="1" parent="fJLxZldaC8GXOIMq1Dwn-12">
          <mxGeometry y="26" width="240" height="26" as="geometry" />
        </mxCell>
        <mxCell id="fJLxZldaC8GXOIMq1Dwn-14" value="" style="line;strokeWidth=1;fillColor=none;align=left;verticalAlign=middle;spacingTop=-1;spacingLeft=3;spacingRight=3;rotatable=0;labelPosition=right;points=[];portConstraint=eastwest;strokeColor=inherit;" vertex="1" parent="fJLxZldaC8GXOIMq1Dwn-12">
          <mxGeometry y="52" width="240" height="8" as="geometry" />
        </mxCell>
        <mxCell id="fJLxZldaC8GXOIMq1Dwn-15" value="+ DeliveryPerson(String, int)&lt;div&gt;+ DeliveryPerson(String, int, Vehicle)&lt;/div&gt;&lt;div&gt;+ getDeliveryVehicle(): Vehicle&lt;/div&gt;&lt;div&gt;+ setDeliveryVehicle(Vehicle): Void&lt;/div&gt;" style="text;strokeColor=none;fillColor=none;align=left;verticalAlign=top;spacingLeft=4;spacingRight=4;overflow=hidden;rotatable=0;points=[[0,0.5],[1,0.5]];portConstraint=eastwest;whiteSpace=wrap;html=1;" vertex="1" parent="fJLxZldaC8GXOIMq1Dwn-12">
          <mxGeometry y="60" width="240" height="120" as="geometry" />
        </mxCell>
        <mxCell id="fJLxZldaC8GXOIMq1Dwn-16" value="Customer" style="swimlane;fontStyle=1;align=center;verticalAlign=top;childLayout=stackLayout;horizontal=1;startSize=26;horizontalStack=0;resizeParent=1;resizeParentMax=0;resizeLast=0;collapsible=1;marginBottom=0;whiteSpace=wrap;html=1;" vertex="1" parent="1">
          <mxGeometry x="-620" y="120" width="250" height="180" as="geometry" />
        </mxCell>
        <mxCell id="fJLxZldaC8GXOIMq1Dwn-17" value="- addresses: ArrayList&amp;lt;Address&amp;gt;" style="text;strokeColor=none;fillColor=none;align=left;verticalAlign=top;spacingLeft=4;spacingRight=4;overflow=hidden;rotatable=0;points=[[0,0.5],[1,0.5]];portConstraint=eastwest;whiteSpace=wrap;html=1;" vertex="1" parent="fJLxZldaC8GXOIMq1Dwn-16">
          <mxGeometry y="26" width="250" height="26" as="geometry" />
        </mxCell>
        <mxCell id="fJLxZldaC8GXOIMq1Dwn-18" value="" style="line;strokeWidth=1;fillColor=none;align=left;verticalAlign=middle;spacingTop=-1;spacingLeft=3;spacingRight=3;rotatable=0;labelPosition=right;points=[];portConstraint=eastwest;strokeColor=inherit;" vertex="1" parent="fJLxZldaC8GXOIMq1Dwn-16">
          <mxGeometry y="52" width="250" height="8" as="geometry" />
        </mxCell>
        <mxCell id="fJLxZldaC8GXOIMq1Dwn-19" value="+ Customer(String, int)&lt;div&gt;+ getAddress(int): Address&lt;/div&gt;&lt;div&gt;+ removeAddress(int): void&lt;br&gt;&lt;div&gt;+ addAddress(Address): void&lt;/div&gt;&lt;div&gt;&lt;br&gt;&lt;div&gt;&lt;br&gt;&lt;/div&gt;&lt;/div&gt;&lt;/div&gt;" style="text;strokeColor=none;fillColor=none;align=left;verticalAlign=top;spacingLeft=4;spacingRight=4;overflow=hidden;rotatable=0;points=[[0,0.5],[1,0.5]];portConstraint=eastwest;whiteSpace=wrap;html=1;" vertex="1" parent="fJLxZldaC8GXOIMq1Dwn-16">
          <mxGeometry y="60" width="250" height="120" as="geometry" />
        </mxCell>
        <mxCell id="fJLxZldaC8GXOIMq1Dwn-20" value="Extends" style="endArrow=block;endSize=16;endFill=0;html=1;rounded=0;exitX=0.44;exitY=0;exitDx=0;exitDy=0;exitPerimeter=0;" edge="1" parent="1" source="fJLxZldaC8GXOIMq1Dwn-16" target="fJLxZldaC8GXOIMq1Dwn-4">
          <mxGeometry width="160" relative="1" as="geometry">
            <mxPoint x="-250" y="50" as="sourcePoint" />
            <mxPoint x="-320" y="30" as="targetPoint" />
            <Array as="points">
              <mxPoint x="-510" y="80" />
              <mxPoint x="-315" y="80" />
            </Array>
          </mxGeometry>
        </mxCell>
        <mxCell id="fJLxZldaC8GXOIMq1Dwn-21" value="Extends" style="endArrow=block;endSize=16;endFill=0;html=1;rounded=0;exitX=0.5;exitY=0;exitDx=0;exitDy=0;" edge="1" parent="1" source="fJLxZldaC8GXOIMq1Dwn-12" target="fJLxZldaC8GXOIMq1Dwn-4">
          <mxGeometry width="160" relative="1" as="geometry">
            <mxPoint x="-250" y="50" as="sourcePoint" />
            <mxPoint x="-320" y="40" as="targetPoint" />
            <Array as="points">
              <mxPoint x="-120" y="80" />
              <mxPoint x="-315" y="80" />
            </Array>
          </mxGeometry>
        </mxCell>
        <mxCell id="fJLxZldaC8GXOIMq1Dwn-32" style="edgeStyle=orthogonalEdgeStyle;rounded=0;orthogonalLoop=1;jettySize=auto;html=1;exitX=0.999;exitY=0.234;exitDx=0;exitDy=0;entryX=0;entryY=0.5;entryDx=0;entryDy=0;endArrow=none;endFill=0;exitPerimeter=0;" edge="1" parent="1" source="fJLxZldaC8GXOIMq1Dwn-15" target="qywuNPzPCbRa4dSA3wJB-8">
          <mxGeometry relative="1" as="geometry" />
        </mxCell>
        <mxCell id="fJLxZldaC8GXOIMq1Dwn-34" style="edgeStyle=orthogonalEdgeStyle;rounded=0;orthogonalLoop=1;jettySize=auto;html=1;exitX=0;exitY=0.5;exitDx=0;exitDy=0;entryX=0;entryY=0.5;entryDx=0;entryDy=0;endArrow=none;endFill=0;" edge="1" parent="1" source="fJLxZldaC8GXOIMq1Dwn-19" target="qywuNPzPCbRa4dSA3wJB-12">
          <mxGeometry relative="1" as="geometry" />
        </mxCell>
        <mxCell id="fJLxZldaC8GXOIMq1Dwn-35" style="edgeStyle=orthogonalEdgeStyle;rounded=0;orthogonalLoop=1;jettySize=auto;html=1;exitX=1;exitY=0.5;exitDx=0;exitDy=0;entryX=0.001;entryY=0.189;entryDx=0;entryDy=0;endArrow=none;endFill=0;entryPerimeter=0;" edge="1" parent="1" source="fJLxZldaC8GXOIMq1Dwn-19" target="qywuNPzPCbRa4dSA3wJB-20">
          <mxGeometry relative="1" as="geometry" />
        </mxCell>
        <mxCell id="fJLxZldaC8GXOIMq1Dwn-36" style="edgeStyle=orthogonalEdgeStyle;rounded=0;orthogonalLoop=1;jettySize=auto;html=1;exitX=1;exitY=0.667;exitDx=0;exitDy=0;entryX=1;entryY=0.5;entryDx=0;entryDy=0;endArrow=none;endFill=0;exitPerimeter=0;" edge="1" parent="1" source="fJLxZldaC8GXOIMq1Dwn-15" target="qywuNPzPCbRa4dSA3wJB-20">
          <mxGeometry relative="1" as="geometry" />
        </mxCell>
        <mxCell id="fJLxZldaC8GXOIMq1Dwn-38" style="edgeStyle=orthogonalEdgeStyle;rounded=0;orthogonalLoop=1;jettySize=auto;html=1;exitX=1;exitY=0.5;exitDx=0;exitDy=0;entryX=0;entryY=0.5;entryDx=0;entryDy=0;endArrow=none;endFill=0;" edge="1" parent="1" source="qywuNPzPCbRa4dSA3wJB-12" target="qywuNPzPCbRa4dSA3wJB-20">
          <mxGeometry relative="1" as="geometry" />
        </mxCell>
      </root>
    </mxGraphModel>
  </diagram>
</mxfile>
